<svg xmlns="http://www.w3.org/2000/svg" viewBox="0 0 216.07 135.01"><defs><style>.cls-1{fill:#abcfc6;}.cls-2{fill:#f2e2b8;}.cls-3{fill:#13017c;}.cls-4{fill:#c8eff0;}.cls-5{fill:#f8b09c;}</style></defs><g id="Layer_2" data-name="Layer 2"><g id="Layer_1-2" data-name="Layer 1"><rect class="cls-1" width="108.03" height="135.01"/><rect class="cls-2" x="108.03" width="108.03" height="135.01"/><path class="cls-3" d="M108,28.47a39,39,0,1,1-39,39A39,39,0,0,1,108,28.47Zm-2.06,77a20.64,20.64,0,0,1-5.92-1.71A18.94,18.94,0,0,1,89.2,83.8a18.37,18.37,0,0,1,6.76-12,18.62,18.62,0,0,1,12.11-4.32,18.81,18.81,0,0,0,5.32-.77,19,19,0,0,0-4.79-37.22,36.31,36.31,0,0,0-9.12,1A38,38,0,0,0,70.13,64.52a36.71,36.71,0,0,0,1.32,13.35,38.13,38.13,0,0,0,21.81,24.64,37.89,37.89,0,0,0,10.66,2.75C104.59,105.33,105.26,105.37,105.93,105.42ZM103,86.48a5,5,0,1,0,5-5A5,5,0,0,0,103,86.48Z"/><path class="cls-4" d="M105.93,105.42c-.67,0-1.34-.09-2-.16A37.85,37.85,0,0,1,79.87,93a37.45,37.45,0,0,1-8.42-15.14,36.71,36.71,0,0,1-1.32-13.35A38,38,0,0,1,99.48,30.44a36.31,36.31,0,0,1,9.12-1,19,19,0,0,1,4.79,37.22,18.81,18.81,0,0,1-5.32.77A18.62,18.62,0,0,0,96,71.79a18.37,18.37,0,0,0-6.76,12A18.94,18.94,0,0,0,100,103.71,20.64,20.64,0,0,0,105.93,105.42ZM113,48.49a5,5,0,1,0-5,5A5,5,0,0,0,113,48.49Z"/><path class="cls-4" d="M103,86.48a5,5,0,1,1,5,5A5,5,0,0,1,103,86.48Z"/><path class="cls-3" d="M113,48.49a5,5,0,1,1-5-5A5,5,0,0,1,113,48.49Z"/><path class="cls-5" d="M151.46,107.12l-10.63-9.89c-1.7,3.26-3.51,6.75-5.52,10.62-3.63-11-7.15-21.68-10.78-32.67L157.28,85.7l-11,5.81L157.2,102Z"/></g></g></svg>